<?xml version="1.0" encoding="utf-8"?>
<!-- Generator: Adobe Illustrator 16.0.0, SVG Export Plug-In . SVG Version: 6.00 Build 0)  -->
<!DOCTYPE svg PUBLIC "-//W3C//DTD SVG 1.1//EN" "http://www.w3.org/Graphics/SVG/1.1/DTD/svg11.dtd">
<svg version="1.1" id="Capa_1" xmlns="http://www.w3.org/2000/svg" xmlns:xlink="http://www.w3.org/1999/xlink" x="0px" y="0px"
	 width="754.782px" height="207.826px" viewBox="0 0 754.782 207.826" enable-background="new 0 0 754.782 207.826"
	 xml:space="preserve">
	<g>
		<path fill="#FDB62F" d="M185.715,61.604c-0.549-3.137-2.486-5.855-5.27-7.4c-2.575-1.582-5.742-1.867-8.558-0.77
			c0-0.223,0.066-0.434,0.066-0.66c0.049-5.697-4.53-10.355-10.228-10.406c-1.268-0.01-2.527,0.213-3.715,0.658
			c0-0.223,0.066-0.434,0.066-0.658c0-5.748-4.66-10.408-10.407-10.408c0-5.748-4.66-10.408-10.408-10.408
			c-0.226,0-0.437,0.053-0.659,0.066c0.933-2.379,0.873-5.033-0.166-7.369c-1.493-3.588-4.811-6.09-8.673-6.535
			c-3.196-0.275-6.339,0.949-8.506,3.316c-1.948-5.395-7.901-8.189-13.297-6.242c-4.136,1.494-6.883,5.43-6.859,9.826
			c0.01-5.738-4.635-10.398-10.373-10.408c-3.577-0.006-6.907,1.828-8.812,4.857c-2.268-1.328-4.962-1.719-7.514-1.092
			c-3.982,0.982-7.032,4.186-7.819,8.211c-0.589,3.211,0.376,6.51,2.602,8.898c-3.297,0.217-6.294,1.992-8.065,4.783
			c-2.567-1.504-5.665-1.803-8.472-0.814c-2.992,1.031-5.356,3.365-6.428,6.344c-0.872,2.393-0.822,5.021,0.139,7.381
			c-4.534,1.209-7.691,5.313-7.702,10.004c0,0.225,0.052,0.438,0.066,0.66c-2.809-1.096-5.967-0.814-8.538,0.758
			c-2.792,1.545-4.735,4.27-5.287,7.412c-0.634,4.15,1.3,8.275,4.898,10.441l1.922,1.547h12.142v13.582h121.42V73.591h15.611
			l-0.486-0.486C183.374,71.636,186.495,66.726,185.715,61.604z"/>
		<path fill="#DE0418" d="M52.267,205.13L22.144,86.159c-2.008-8.697,3.414-17.373,12.11-19.383c1.193-0.273,2.413-0.412,3.637-0.412
			h0.152c8.132-0.002,14.998,6.039,16.031,14.105l19.008,124.66H52.267z"/>
		<path fill="#FCE9CC" d="M73.082,205.13L54.602,84.579c-1.136-8.852,5.119-16.947,13.971-18.084
			c0.683-0.088,1.372-0.131,2.061-0.131h0.576c8.765-0.002,15.932,6.984,16.156,15.746l6.532,123.02H73.082z"/>
		<path fill="#DE0418" d="M87.385,82.938l6.511,122.191h20.815l6.067-121.768c0.464-8.912-6.386-16.514-15.298-16.977
			c-0.276-0.016-0.553-0.021-0.83-0.021h-1.1c-8.924-0.008-16.165,7.223-16.171,16.146C87.38,82.653,87.382,82.796,87.385,82.938
			L87.385,82.938z"/>
		<path fill="#FCE9CC" d="M120.863,81.696l-6.151,123.434h20.815l17.949-120.148c1.359-8.82-4.691-17.07-13.511-18.43
			c-0.814-0.125-1.637-0.188-2.461-0.188h-0.503C128.397,66.364,121.302,73.104,120.863,81.696z"/>
		<path fill="#DE0418" d="M170.218,66.364c8.924,0,16.159,7.234,16.159,16.158c0,1.354-0.169,2.703-0.506,4.014L156.342,205.13
			h-20.815l18.706-125.064C155.446,72.179,162.237,66.356,170.218,66.364z"/>
		<g>
			<path fill="#FDB62F" d="M34.921,14.327c0.022-5.73-4.604-10.393-10.333-10.414c-3.842-0.016-7.377,2.094-9.188,5.482
				c-0.428-0.07-0.86-0.111-1.294-0.127c-5.748,0-10.407,4.658-10.407,10.406c0,5.75,4.66,10.408,10.407,10.408
				c0.484-0.016,0.966-0.063,1.443-0.146c2.82,4.982,9.144,6.736,14.126,3.918c4.983-2.818,6.737-9.145,3.917-14.127
				c-0.038-0.066-0.076-0.131-0.115-0.197C34.413,17.954,34.911,16.159,34.921,14.327z"/>
			<path fill="#FDB62F" d="M204.91,21.265c0.022-5.73-4.604-10.391-10.332-10.414c-3.842-0.014-7.378,2.096-9.189,5.484
				c-0.428-0.07-0.86-0.113-1.294-0.129c-5.748,0-10.407,4.66-10.407,10.408s4.659,10.408,10.407,10.408
				c0.484-0.016,0.966-0.064,1.443-0.146c2.819,4.982,9.144,6.736,14.126,3.918c4.983-2.82,6.736-9.145,3.917-14.127
				c-0.038-0.066-0.076-0.133-0.115-0.199C204.402,24.892,204.9,23.097,204.91,21.265z"/>
		</g>
	</g>
	<g fill="#ebebeb">
		<path d="M306.524,79.663v60.947c0,10.605-3.524,18.826-10.573,24.66c-7.049,5.836-16.281,8.754-27.694,8.754
			c-11.542,0-20.849-2.918-27.918-8.754c-7.07-5.834-10.605-14.055-10.605-24.66V79.663h21.657v60.947
			c0,5.709,1.47,9.936,4.408,12.682c2.939,2.748,7.092,4.121,12.458,4.121c5.323,0,9.423-1.363,12.298-4.088
			c2.875-2.727,4.313-6.965,4.313-12.715V79.663H306.524z"/>
		<path d="M397.627,134.541c0,11.457-3.632,20.902-10.893,28.334c-7.263,7.432-16.75,11.148-28.462,11.148
			c-11.798,0-21.36-3.717-28.685-11.148c-7.326-7.432-10.988-16.877-10.988-28.334v-16.738c0-11.414,3.65-20.848,10.956-28.301
			c7.304-7.453,16.834-11.181,28.589-11.181c11.67,0,21.168,3.728,28.494,11.181c7.324,7.453,10.988,16.888,10.988,28.301V134.541z
			M376.097,117.676c0-6.645-1.565-12.096-4.695-16.356c-3.131-4.258-7.55-6.389-13.257-6.389c-5.836,0-10.297,2.119-13.384,6.357
			c-3.089,4.238-4.632,9.7-4.632,16.387v16.865c0,6.73,1.564,12.225,4.695,16.482c3.131,4.26,7.613,6.389,13.448,6.389
			c5.664,0,10.052-2.129,13.161-6.389c3.107-4.258,4.663-9.752,4.663-16.482V117.676z"/>
		<path d="M482.596,140.035l0.127,0.383c-0.426,10.904-3.652,19.23-9.678,24.98c-6.027,5.75-14.77,8.625-26.227,8.625
			c-11.499,0-20.848-3.535-28.045-10.605c-7.199-7.07-10.797-16.248-10.797-27.535v-19.422c0-11.244,3.459-20.412,10.381-27.502
			c6.921-7.092,15.918-10.638,26.992-10.638c11.755,0,20.741,2.961,26.96,8.881c6.218,5.92,9.731,14.332,10.542,25.234l-0.129,0.384
			h-21.018c-0.299-6.048-1.652-10.541-4.057-13.48c-2.407-2.938-6.508-4.408-12.299-4.408c-4.898,0-8.752,1.971-11.563,5.91
			s-4.216,9.104-4.216,15.493v19.549c0,6.432,1.533,11.627,4.6,15.588s7.283,5.941,12.648,5.941c5.196,0,8.881-1.383,11.053-4.152
			c2.172-2.768,3.407-7.176,3.705-13.225H482.596z"/>
	</g>
	<g fill="#DE0418">
		<path d="M560.887,129.047h-45.231v43.635h-7.603V79.664h59.351v6.517h-51.748v36.351h45.231V129.047z"/>
		<path d="M591.169,166.166h45.999v6.516h-53.666V79.664h7.667V166.166z"/>
		<path d="M661.763,172.682h-7.666V79.664h7.666V172.682z"/>
		<path d="M716.833,119.4l26.258-39.737h9.264l-30.921,45.87l31.942,47.148h-9.136l-27.279-41.014l-27.215,41.014
			h-9.264l31.943-47.148l-30.985-45.87h9.264L716.833,119.4z"/>
	</g>
</svg>
